# xmcd
# Track frame offsets:
# 150
# 16115
# 21915
# 31900
# 44830
# 58422
# 70172
# 82462
# 84315
# 93330
# 109500
# 122490
# 133377
# 144540
# 149190
# 163582
# 174837
# 188487
# 200030
# 217122
# 231180
#
# Disc length: 3161 seconds
# Revision: 0
# Processed by: cddbd v1.5.1PL0 Copyright (c) Steve Scherf et al.
# Submitted via: VisiTrax 2.9.10.228 - For more info visit www.synapsa.com
#
DISCID=3a0c5715
DTITLE=Ress Gwerder und Ludi Hürlimann - Tänz usem Geisshimmel
DYEAR=1996
DGENRE=
TTITLE0=Die lustigen Illgauer
TTITLE1=De Beerivogel
TTITLE2=Im Adler z'Küssnacht
TTITLE3=Bim Dominsch am -süüdgadefäscht
TTITLE4=Vom Oktoberfäscht z'rugg
TTITLE5=Im Wygärtli
TTITLE6=Multiforsa-Ländler
TTITLE7=Bücheljuuz
TTITLE8=Dr Hundener-Schottisch
TTITLE9=Am Eidg.Hoselupf z'Schwyz
TTITLE10=Männertreu
TTITLE11=Em Rudi sin Tanz
TTITLE12=Risi's Abschied vom Dürreboda
TTITLE13=Bücheljuuz
TTITLE14=Am Theresli z'lieb
TTITLE15=Mäge pass uf!
TTITLE16=Einä für's Fälchlis
TTITLE17=Eggeli, Eggeli Wisis Chropf
TTITLE18=Beim Ludi im Utebärg
TTITLE19=Vater's Stümpli
TTITLE20=Interview
EXTD=
EXTT0=
EXTT1=
EXTT2=
EXTT3=
EXTT4=
EXTT5=
EXTT6=
EXTT7=
EXTT8=
EXTT9=
EXTT10=
EXTT11=
EXTT12=
EXTT13=
EXTT14=
EXTT15=
EXTT16=
EXTT17=
EXTT18=
EXTT19=
EXTT20=
PLAYORDER=
